<?xml version="1.0" encoding="UTF-8"?>
<svg xmlns="http://www.w3.org/2000/svg" xmlns:xlink="http://www.w3.org/1999/xlink" width="16px" height="16px" viewBox="0 0 16 16" version="1.1">
<g id="surface1">
<path style=" stroke:none;fill-rule:nonzero;fill:rgb(0%,0%,0%);fill-opacity:1;" d="M 13.433594 13.886719 L 2.566406 13.886719 C 1.214844 13.886719 0.117188 12.789062 0.113281 11.433594 L 0.113281 4.5625 C 0.117188 3.210938 1.214844 2.113281 2.566406 2.113281 L 13.433594 2.113281 C 14.785156 2.113281 15.882812 3.210938 15.886719 4.5625 L 15.886719 11.433594 C 15.882812 12.789062 14.785156 13.886719 13.433594 13.886719 Z M 2.566406 3.253906 C 1.84375 3.253906 1.257812 3.839844 1.257812 4.5625 L 1.257812 11.433594 C 1.257812 12.160156 1.84375 12.746094 2.566406 12.746094 L 13.433594 12.746094 C 14.15625 12.746094 14.742188 12.160156 14.742188 11.433594 L 14.742188 4.5625 C 14.742188 3.839844 14.15625 3.253906 13.433594 3.253906 Z M 2.566406 3.253906 "/>
<path style=" stroke:none;fill-rule:nonzero;fill:rgb(0%,0%,0%);fill-opacity:1;" d="M 7.992188 9.539062 C 7.515625 9.542969 7.046875 9.386719 6.667969 9.09375 L 0.558594 4.222656 C 0.308594 4.027344 0.269531 3.667969 0.464844 3.417969 C 0.664062 3.171875 1.023438 3.132812 1.269531 3.328125 L 7.378906 8.199219 C 7.75 8.460938 8.246094 8.460938 8.613281 8.195312 L 14.648438 3.332031 C 14.890625 3.132812 15.253906 3.171875 15.449219 3.417969 C 15.648438 3.664062 15.609375 4.023438 15.363281 4.21875 L 9.332031 9.085938 C 8.949219 9.382812 8.476562 9.542969 7.992188 9.539062 Z M 7.992188 9.539062 "/>
</g>
</svg>
