<?xml version="1.0" encoding="UTF-8"?>
<svg xmlns="http://www.w3.org/2000/svg" xmlns:xlink="http://www.w3.org/1999/xlink" width="16px" height="16px" viewBox="0 0 16 16" version="1.1">
<g id="surface1">
<path style=" stroke:none;fill-rule:nonzero;fill:rgb(0%,0%,0%);fill-opacity:1;" d="M 11.316406 3.199219 L 12.597656 3.199219 L 12.667969 0 L 10.117188 0 C 8.777344 0 6.238281 0.683594 6.238281 3.214844 C 6.238281 3.242188 6.210938 3.820312 6.234375 5.332031 L 3.332031 5.332031 L 3.332031 8.179688 L 6.265625 8.179688 L 6.265625 16 L 9.730469 16 L 9.730469 8.179688 L 12.578125 8.179688 L 12.578125 5.332031 L 9.730469 5.332031 L 9.730469 4.613281 C 9.730469 4.070312 10.183594 3.199219 11.316406 3.199219 Z M 11.867188 6.042969 L 11.867188 7.464844 L 9.019531 7.464844 L 9.019531 15.289062 L 6.976562 15.289062 L 6.976562 7.464844 L 4.042969 7.464844 L 4.042969 6.042969 L 6.957031 6.042969 L 6.949219 5.667969 C 6.914062 3.964844 6.949219 3.25 6.949219 3.226562 C 6.949219 0.75 9.988281 0.710938 10.117188 0.710938 L 11.941406 0.710938 L 11.902344 2.488281 L 11.316406 2.488281 C 9.898438 2.488281 9.019531 3.570312 9.019531 4.613281 L 9.019531 6.042969 Z M 11.867188 6.042969 "/>
</g>
</svg>
