<?xml version="1.0" encoding="UTF-8"?>
<svg xmlns="http://www.w3.org/2000/svg" xmlns:xlink="http://www.w3.org/1999/xlink" width="16px" height="16px" viewBox="0 0 16 16" version="1.1">
<g id="surface1">
<path style="fill:none;stroke-width:1;stroke-linecap:butt;stroke-linejoin:miter;stroke:rgb(0%,0%,0%);stroke-opacity:1;stroke-miterlimit:4;" d="M 56 16.453125 C 53.3125 16.046875 50.609375 15.8125 47.890625 15.734375 C 44.859375 12.546875 40.078125 11.796875 36.21875 13.875 C 32.34375 15.953125 30.34375 20.359375 31.328125 24.640625 C 23.25 24.234375 17.125 20.078125 11.40625 13.90625 C 10.625 15.4375 9.15625 20.28125 10.296875 23.78125 C 11.671875 27.234375 14.015625 30.21875 17.046875 32.375 C 14.125 32.234375 11.25 31.609375 8.53125 30.515625 C 9.9375 35.15625 14.78125 41.875 22.390625 42.921875 C 18.953125 45.640625 14.703125 47.109375 10.3125 47.109375 C 9.546875 47.125 8.765625 47.078125 8 47 C 12.4375 49.875 17.609375 51.390625 22.90625 51.390625 C 40.765625 51.390625 50.546875 36.5 50.546875 23.578125 L 50.546875 22.3125 Z M 56 16.453125 " transform="matrix(0.25,0,0,0.25,0,0)"/>
</g>
</svg>
