<?xml version="1.0" encoding="UTF-8"?>
<svg xmlns="http://www.w3.org/2000/svg" xmlns:xlink="http://www.w3.org/1999/xlink" width="16px" height="16px" viewBox="0 0 16 16" version="1.1">
<g id="surface1">
<path style="fill:none;stroke-width:1;stroke-linecap:round;stroke-linejoin:round;stroke:rgb(0%,0%,0%);stroke-opacity:1;stroke-miterlimit:4;" d="M 24 2.496094 C 16.40625 2.507812 9.375 6.527344 5.507812 13.066406 C 1.628906 19.605469 1.5 27.691406 5.144531 34.359375 L 2.496094 45.503906 L 13.640625 42.855469 C 21.515625 47.167969 31.242187 46.136719 38.039062 40.265625 C 44.824219 34.40625 47.261719 24.925781 44.132812 16.511719 C 41.003906 8.097656 32.976562 2.507812 24 2.496094 Z M 13.253906 12.269531 L 19.113281 12.269531 C 19.664062 12.269531 20.109375 12.714844 20.109375 13.265625 C 20.074219 14.601562 20.296875 15.925781 20.765625 17.179687 C 21.1875 18.046875 20.90625 19.078125 20.109375 19.617187 L 18.058594 21.621094 C 18.972656 23.390625 20.15625 25.007812 21.574219 26.414062 C 22.96875 27.855469 24.574219 29.0625 26.355469 30 L 28.347656 27.949219 C 29.355469 26.953125 29.8125 26.953125 30.785156 27.292969 C 32.039062 27.761719 33.363281 27.984375 34.699219 27.949219 C 35.238281 27.972656 35.671875 28.40625 35.695312 28.945312 L 35.695312 34.804687 C 35.671875 35.355469 35.238281 35.789062 34.699219 35.8125 C 28.816406 35.554687 23.238281 33.117187 19.054687 28.96875 C 14.90625 24.796875 12.46875 19.21875 12.222656 13.324219 C 12.222656 12.761719 12.679687 12.292969 13.253906 12.269531 Z M 13.253906 12.269531 " transform="matrix(0.333333,0,0,0.333333,0,0)"/>
</g>
</svg>
