<?xml version="1.0" encoding="UTF-8"?>
<svg xmlns="http://www.w3.org/2000/svg" xmlns:xlink="http://www.w3.org/1999/xlink" width="16px" height="16px" viewBox="0 0 16 16" version="1.1">
<g id="surface1">
<path style=" stroke:none;fill-rule:evenodd;fill:rgb(100%,0%,0.784314%);fill-opacity:1;" d="M 8 16 C 12.417969 16 16 12.417969 16 8 C 16 3.582031 12.417969 0 8 0 C 3.582031 0 0 3.582031 0 8 C 0 12.417969 3.582031 16 8 16 Z M 8 16 "/>
<path style=" stroke:none;fill-rule:evenodd;fill:rgb(100%,100%,100%);fill-opacity:1;" d="M 6.898438 9.394531 L 6.898438 6.375 L 9.78125 7.890625 Z M 13.226562 5.851562 C 13.226562 5.851562 13.121094 5.113281 12.800781 4.785156 C 12.398438 4.359375 11.941406 4.355469 11.734375 4.332031 C 10.242188 4.222656 8.003906 4.222656 8.003906 4.222656 L 7.996094 4.222656 C 7.996094 4.222656 5.757812 4.222656 4.265625 4.332031 C 4.058594 4.355469 3.601562 4.359375 3.195312 4.785156 C 2.878906 5.113281 2.773438 5.851562 2.773438 5.851562 C 2.773438 5.851562 2.667969 6.722656 2.667969 7.589844 L 2.667969 8.40625 C 2.667969 9.273438 2.773438 10.144531 2.773438 10.144531 C 2.773438 10.144531 2.878906 10.882812 3.195312 11.210938 C 3.601562 11.636719 4.136719 11.625 4.375 11.667969 C 5.226562 11.753906 8 11.777344 8 11.777344 C 8 11.777344 10.242188 11.773438 11.734375 11.664062 C 11.941406 11.640625 12.398438 11.636719 12.800781 11.210938 C 13.121094 10.882812 13.226562 10.144531 13.226562 10.144531 C 13.226562 10.144531 13.332031 9.273438 13.332031 8.40625 L 13.332031 7.589844 C 13.332031 6.722656 13.226562 5.851562 13.226562 5.851562 Z M 13.226562 5.851562 "/>
</g>
</svg>
